<?xml version="1.0" encoding="UTF-8" standalone="no" ?>
<!DOCTYPE svg PUBLIC "-//W3C//DTD SVG 1.1//EN" "http://www.w3.org/Graphics/SVG/1.1/DTD/svg11.dtd">
<svg xmlns="http://www.w3.org/2000/svg" xmlns:xlink="http://www.w3.org/1999/xlink" version="1.1" width="1080" height="1080" viewBox="0 0 1080 1080" xml:space="preserve">
<desc>Created with Fabric.js 5.2.4</desc>
<defs>
</defs>
<g transform="matrix(1 0 0 1 540 540)" id="b484ded9-1bb0-40eb-a903-34a13137d7b0"  >
<rect style="stroke: none; stroke-width: 1; stroke-dasharray: none; stroke-linecap: butt; stroke-dashoffset: 0; stroke-linejoin: miter; stroke-miterlimit: 4; fill: rgb(255,255,255); fill-rule: nonzero; opacity: 1; visibility: hidden;" vector-effect="non-scaling-stroke"  x="-540" y="-540" rx="0" ry="0" width="1080" height="1080" />
</g>
<g transform="matrix(1 0 0 1 540 540)" id="1ed45bcc-d100-42e0-8478-734011c7e780"  >
</g>
<g transform="matrix(0 25.68 -25.68 0 540 540)" id="Calque_1"  >
<path style="stroke: none; stroke-width: 1; stroke-dasharray: none; stroke-linecap: butt; stroke-dashoffset: 0; stroke-linejoin: miter; stroke-miterlimit: 4; fill: rgb(0,0,0); fill-rule: nonzero; opacity: 1;"  transform=" translate(-21, -11)" d="M 1 11.95047 L 38.59 11.95047 L 30.300000000000004 20.24047 C 30.014623840279658 20.484859881482134 29.890318055734227 20.86858839506357 29.978189865015306 21.23388897245328 C 30.066061674296385 21.599189549842986 30.351280450157017 21.884408325703617 30.716581027546724 21.972280134984697 C 31.081881604936434 22.060151944265776 31.46561011851787 21.935846159720345 31.710000000000004 21.65047 L 41.71000000000001 11.650469999999999 C 42.09772359471081 11.260432545689074 42.09772359471081 10.630507454310921 41.71000000000001 10.240469999999998 L 31.710000000000008 0.2404699999999984 C 31.313239722544306 -0.0993067959287039 30.721805828454304 -0.07646226968103403 30.35243677938664 0.2929067793866287 C 29.983067730318975 0.6622758284542913 29.960223204071305 1.2537097225442966 30.300000000000008 1.6504699999999974 L 38.59 9.95047 L 1 9.95047 C 0.44771525016920655 9.95047 0 10.398185250169206 0 10.95047 C 0 11.502754749830792 0.44771525016920655 11.95047 1 11.95047 Z" stroke-linecap="round" />
</g>
</svg>